# xmcd
#
# Track frame offsets: 
#        150
#        24540
#        44505
#        66940
#        105710
#        135250
#        162182
#        178785
#
# Disc length: 2760 seconds
#
# Revision: 1
# Processed by: cddbd v1.5.2PL0 Copyright (c) Steve Scherf et al.
# Submitted via: ExactAudioCopy v1.0b1
#
DISCID=670ac608
DTITLE=Robert Stewart - Judgement
DYEAR=1993
DGENRE=Jazz
TTITLE0=Serene
TTITLE1=Speak triugh your horn
TTITLE2=Revelations
TTITLE3=Judgement
TTITLE4=Invitation
TTITLE5=Familiar Changes
TTITLE6=Soul Searchin'
TTITLE7=As Time Goes By
EXTD=YEAR: 1993
EXTT0=
EXTT1=
EXTT2=
EXTT3=
EXTT4=
EXTT5=
EXTT6=
EXTT7=
PLAYORDER=
